HIERARCHY
ROOT Hips
{
	OFFSET 0.000000 0.000000 0.000000
	CHANNELS 6 Xposition Yposition Zposition Zrotation Yrotation Xrotation 
	JOINT LowerBack
	{
		OFFSET 0.000000 0.000000 0.000000
		CHANNELS 3 Zrotation Yrotation Xrotation
		JOINT Spine
		{
			OFFSET 0.028270 2.035590 -0.193380
			CHANNELS 3 Zrotation Yrotation Xrotation
			JOINT Spine1
			{
				OFFSET 0.056720 2.048850 -0.042750
				CHANNELS 3 Zrotation Yrotation Xrotation
				JOINT Neck
				{
					OFFSET 0.000000 0.000000 0.000000
					CHANNELS 3 Zrotation Yrotation Xrotation
					JOINT Neck1
					{
						OFFSET -0.054170 1.746240 0.172020
						CHANNELS 3 Zrotation Yrotation Xrotation
						JOINT Head
						{
							OFFSET 0.104070 1.761360 -0.123970
							CHANNELS 3 Zrotation Yrotation Xrotation
							End Site
							{
								OFFSET 0.000000 0.000000 0.000000
							}
						}
					}
				}
				JOINT LeftShoulder
				{
					OFFSET 0.000000 0.000000 0.000000
					CHANNELS 3 Zrotation Yrotation Xrotation
					JOINT LeftArm
					{
						OFFSET 3.362410 1.200890 -0.311210
						CHANNELS 3 Zrotation Yrotation Xrotation
						JOINT LeftForeArm
						{
							OFFSET 4.983000 -0.000000 -0.000000
							CHANNELS 3 Zrotation Yrotation Xrotation
							JOINT LeftHand
							{
								OFFSET 3.483560 -0.000000 -0.000000
								CHANNELS 3 Zrotation Yrotation Xrotation
								JOINT LeftFingerBase
								{
									OFFSET 0.000000 0.000000 0.000000
									CHANNELS 3 Zrotation Yrotation Xrotation
									JOINT LeftHandIndex1
									{
										OFFSET 0.715260 -0.000000 -0.000000
										CHANNELS 3 Zrotation Yrotation Xrotation
										End Site
										{
											OFFSET 0.000000 0.000000 0.000000
										}
									}
								}
								JOINT LThumb
								{
									OFFSET 0.000000 0.000000 0.000000
									CHANNELS 3 Zrotation Yrotation Xrotation
									End Site
									{
										OFFSET 0.000000 0.000000 0.000000
									}
								}
							}
						}
					}
				}
				JOINT RightShoulder
				{
					OFFSET 0.000000 0.000000 0.000000
					CHANNELS 3 Zrotation Yrotation Xrotation
					JOINT RightArm
					{
						OFFSET -3.136600 1.374050 -0.404650
						CHANNELS 3 Zrotation Yrotation Xrotation
						JOINT RightForeArm
						{
							OFFSET -5.241900 -0.000000 -0.000000
							CHANNELS 3 Zrotation Yrotation Xrotation
							JOINT RightHand
							{
								OFFSET -3.444170 -0.000000 -0.000000
								CHANNELS 3 Zrotation Yrotation Xrotation
								JOINT RightFingerBase
								{
									OFFSET 0.000000 0.000000 0.000000
									CHANNELS 3 Zrotation Yrotation Xrotation
									JOINT RightHandIndex1
									{
										OFFSET -0.622530 -0.000000 -0.000000
										CHANNELS 3 Zrotation Yrotation Xrotation
										End Site
										{
											OFFSET 0.000000 0.000000 0.000000
										}
									}
								}
								JOINT RThumb
								{
									OFFSET 0.000000 0.000000 0.000000
									CHANNELS 3 Zrotation Yrotation Xrotation
									End Site
									{
										OFFSET 0.000000 0.000000 0.000000
									}
								}
							}
						}
					}
				}
			}
		}
	}
}
}
MOTION
Frames: 15
Frame Time: 0.008333
18.911060 17.062558 3.136412 123.837530 -88.359650 -101.520635 -4.215790 -0.806546 -5.479195 -1.706515 -0.652084 -3.894796 -6.389356 -0.697208 0.637127 11.712483 -7.230719 -5.891108 -2.863580 -0.239193 0.452353 0.000000 0.000000 0.000000 -0.917775 10.626728 2.031221 -61.498890 12.205334 -0.342128 -1.592396 -64.865516 -0.009800 5.128907 2.400292 0.108449 -0.140683 0.073831 -0.000000 0.000000 0.000000 0.000000 0.000000 0.000000 0.000000 12.982950 -1.609939 -0.560222 63.375120 24.392347 19.102740 0.336215 82.862654 0.019049 2.583102 5.221528 0.129246 -0.018625 -0.416017 0.000000 0.000000 0.000000 0.000000 0.000000 0.000000 0.000000 
18.737252 17.000042 3.147087 119.986764 -88.475317 -98.074964 -4.294635 -0.853824 -5.324634 -1.731579 -0.690431 -3.865300 -6.444048 -0.731878 0.624909 11.889587 -7.236340 -5.830556 -2.852185 -0.238866 0.467627 0.000000 0.000000 0.000000 -1.005894 10.710573 2.028485 -61.379614 11.991461 -0.539136 -1.615418 -64.470900 -0.010466 5.358232 2.590380 0.122339 -0.142389 0.071782 -0.000000 0.000000 0.000000 0.000000 0.000000 0.000000 0.000000 13.037638 -1.650945 -0.666295 63.707998 24.246070 18.576259 0.340047 82.806974 0.016449 2.115799 5.553024 0.112282 -0.013008 -0.423504 0.000000 0.000000 0.000000 0.000000 0.000000 0.000000 0.000000 
18.565170 16.942392 3.156219 116.488050 -88.541689 -94.964613 -4.384000 -0.889397 -5.167420 -1.758494 -0.716084 -3.835535 -6.496372 -0.754204 0.612333 12.032201 -7.240070 -5.782130 -2.842438 -0.238446 0.479064 0.000000 0.000000 0.000000 -1.127447 10.817900 2.026113 -61.227298 11.593820 -0.658321 -1.645918 -63.975830 -0.011111 5.595239 2.743609 0.135332 -0.144308 0.070374 -0.000000 0.000000 0.000000 0.000000 0.000000 0.000000 0.000000 13.072235 -1.689759 -0.774080 64.115174 24.026341 18.051147 0.349791 82.630205 0.013451 1.595059 5.853632 0.089122 -0.006566 -0.429680 -0.000000 0.000000 0.000000 0.000000 0.000000 0.000000 0.000000 
18.395048 16.891292 3.163284 113.777781 -88.543171 -92.624204 -4.502744 -0.913344 -5.008095 -1.790968 -0.727557 -3.805979 -6.546859 -0.762907 0.597954 12.142609 -7.240780 -5.744731 -2.835606 -0.238046 0.486884 0.000000 0.000000 0.000000 -1.284712 10.938254 2.024160 -61.039650 11.021617 -0.709535 -1.683474 -63.388152 -0.011744 5.838683 2.865367 0.147526 -0.146390 0.069496 -0.000000 0.000000 0.000000 0.000000 0.000000 0.000000 0.000000 13.097315 -1.725179 -0.879556 64.594613 23.728885 17.530824 0.365375 82.324282 0.010155 1.037107 6.093640 0.060359 0.000423 -0.433961 -0.000000 0.000000 0.000000 0.000000 0.000000 0.000000 0.000000 
18.226707 16.848066 3.167968 112.163434 -88.473096 -91.358221 -4.662525 -0.926751 -4.848715 -1.831225 -0.725018 -3.776815 -6.595424 -0.758248 0.582691 12.224535 -7.239518 -5.717356 -2.832876 -0.237774 0.491325 0.000000 0.000000 0.000000 -1.472297 11.063815 2.021837 -60.825389 10.286798 -0.705460 -1.727744 -62.712765 -0.012359 6.085034 2.959289 0.158720 -0.148563 0.069083 -0.000000 0.000000 0.000000 0.000000 0.000000 0.000000 0.000000 13.125666 -1.759641 -0.978976 65.134181 23.357799 17.024636 0.386482 81.882971 0.006644 0.452582 6.250217 0.027195 0.007806 -0.435882 -0.000000 0.000000 0.000000 0.000000 0.000000 0.000000 0.000000 
18.059879 16.813599 3.171064 111.815203 -88.354314 -91.326927 -4.838731 -0.928360 -4.700357 -1.874042 -0.709448 -3.749954 -6.641130 -0.741230 0.568123 12.275316 -7.237782 -5.698187 -2.834878 -0.237734 0.493232 0.000000 0.000000 0.000000 -1.697004 11.186060 2.016898 -60.597998 9.415355 -0.661991 -1.777614 -61.964557 -0.012954 6.330171 3.028975 0.168915 -0.150748 0.069036 -0.000000 0.000000 0.000000 0.000000 0.000000 0.000000 0.000000 13.159030 -1.796014 -1.069281 65.712014 22.918685 16.545342 0.412071 81.305026 0.003018 -0.148050 6.308820 -0.008374 0.015464 -0.435084 -0.000000 0.000000 0.000000 0.000000 0.000000 0.000000 0.000000 
17.894542 16.788528 3.171872 112.562426 -88.172243 -92.376411 -5.051070 -0.920736 -4.550154 -1.923472 -0.681704 -3.723115 -6.684657 -0.712699 0.553093 12.301718 -7.230710 -5.682509 -2.842343 -0.238020 0.493634 0.000000 0.000000 0.000000 -1.946683 11.298203 2.009357 -60.361894 8.431217 -0.587139 -1.831519 -61.165638 -0.013546 6.572860 3.085535 0.178509 -0.152880 0.069264 -0.000000 0.000000 0.000000 0.000000 0.000000 0.000000 0.000000 13.209087 -1.830160 -1.148094 66.321502 22.417692 16.094711 0.441725 80.590153 -0.000543 -0.738680 6.265393 -0.043349 0.022922 -0.431527 -0.000000 0.000000 0.000000 0.000000 0.000000 0.000000 0.000000 
17.730523 16.773038 3.170821 114.179028 -87.938836 -94.286249 -5.286696 -0.904235 -4.396951 -1.976742 -0.643310 -3.695870 -6.725328 -0.674120 0.538637 12.305791 -7.217089 -5.666725 -2.855321 -0.238690 0.493627 0.000000 0.000000 0.000000 -2.214286 11.395733 1.997620 -60.132605 7.364030 -0.491190 -1.887656 -60.338072 -0.014137 6.809678 3.132633 0.187702 -0.154884 0.069732 -0.000000 0.000000 0.000000 0.000000 0.000000 0.000000 0.000000 13.278520 -1.861811 -1.213780 66.942963 21.865846 15.682794 0.474506 79.744541 -0.003894 -1.301479 6.127804 -0.074935 0.029929 -0.425339 -0.000000 0.000000 0.000000 0.000000 0.000000 0.000000 0.000000 
17.567133 16.766862 3.169440 116.486372 -87.694021 -96.870431 -5.497191 -0.877713 -4.253049 -2.023719 -0.597270 -3.669584 -6.761557 -0.628352 0.529533 12.286137 -7.208193 -5.650872 -2.874066 -0.239805 0.493769 0.000000 0.000000 0.000000 -2.504351 11.474018 1.977791 -59.932242 6.250281 -0.387902 -1.943602 -59.509935 -0.014701 7.034426 3.169136 0.195995 -0.156655 0.070405 -0.000000 0.000000 0.000000 0.000000 0.000000 0.000000 0.000000 13.368441 -1.904219 -1.263947 67.536117 21.291004 15.338292 0.509418 78.779163 -0.006932 -1.830031 5.913536 -0.101928 0.036615 -0.416732 -0.000000 0.000000 0.000000 0.000000 0.000000 0.000000 0.000000 
17.404403 16.769577 3.167709 119.162854 -87.437644 -99.821032 -5.683444 -0.845233 -4.110622 -2.064455 -0.547496 -3.642650 -6.793283 -0.579197 0.525567 12.248312 -7.202520 -5.631453 -2.898056 -0.241363 0.494983 0.000000 0.000000 0.000000 -2.803321 11.529846 1.949771 -59.769023 5.118923 -0.276839 -1.997006 -58.711655 -0.015249 7.245235 3.198156 0.203587 -0.158164 0.071300 -0.000000 0.000000 0.000000 0.000000 0.000000 0.000000 0.000000 13.480316 -1.956706 -1.298800 68.089720 20.702664 15.068087 0.546143 77.710783 -0.009476 -2.296459 5.651447 -0.122530 0.042566 -0.406248 -0.000000 0.000000 0.000000 0.000000 0.000000 0.000000 0.000000 
17.241874 16.780430 3.166698 122.038549 -87.196787 -102.958336 -5.813974 -0.809710 -3.980656 -2.092338 -0.499505 -3.616681 -6.819611 -0.532084 0.528890 12.192451 -7.202393 -5.607467 -2.926415 -0.243339 0.497970 0.000000 0.000000 0.000000 -3.110078 11.562813 1.912515 -59.653798 3.999441 -0.155834 -2.045629 -57.973791 -0.015774 7.439000 3.217831 0.210181 -0.159417 0.072452 -0.000000 0.000000 0.000000 0.000000 0.000000 0.000000 0.000000 13.606900 -2.022920 -1.319368 68.582722 20.109115 14.884610 0.584233 76.565181 -0.011380 -2.678587 5.376267 -0.136238 0.047564 -0.394450 -0.000000 0.000000 0.000000 0.000000 0.000000 0.000000 0.000000 
17.079741 16.798653 3.165216 124.697753 -86.951048 -105.890135 -5.923635 -0.779333 -3.838340 -2.114451 -0.458389 -3.586894 -6.841021 -0.491837 0.537520 12.130258 -7.207637 -5.576977 -2.957855 -0.245610 0.502715 0.000000 0.000000 0.000000 -3.395014 11.569463 1.868546 -59.587780 2.905664 -0.014407 -2.087761 -57.319572 -0.016290 7.614693 3.226789 0.215576 -0.160440 0.073991 -0.000000 0.000000 0.000000 0.000000 0.000000 0.000000 0.000000 13.752483 -2.103988 -1.326806 69.021342 19.517855 14.787852 0.624442 75.363951 -0.012516 -2.948648 5.133544 -0.143353 0.051171 -0.382187 -0.000000 0.000000 0.000000 0.000000 0.000000 0.000000 0.000000 
16.917324 16.823215 3.164885 127.165189 -86.747257 -108.612422 -5.962369 -0.756739 -3.713308 -2.120438 -0.430962 -3.558331 -6.856479 -0.465249 0.554579 12.058729 -7.225853 -5.542827 -2.991221 -0.248117 0.509270 0.000000 0.000000 0.000000 -3.667592 11.550721 1.816598 -59.577568 1.861693 0.155384 -2.121704 -56.776720 -0.016781 7.767665 3.218982 0.219077 -0.161279 0.075972 -0.000000 0.000000 0.000000 0.000000 0.000000 0.000000 0.000000 13.904089 -2.208422 -1.322987 69.381090 18.931153 14.790585 0.666530 74.144396 -0.012832 -3.094031 4.953822 -0.145172 0.053393 -0.369918 -0.000000 0.000000 0.000000 0.000000 0.000000 0.000000 0.000000 
16.754993 16.853226 3.165107 129.225873 -86.586020 -110.912848 -5.945222 -0.748390 -3.598869 -2.113411 -0.422310 -3.529786 -6.866500 -0.457258 0.578428 11.985419 -7.258456 -5.506155 -3.025224 -0.250729 0.517154 0.000000 0.000000 0.000000 -3.911007 11.504163 1.759196 -59.619186 0.874342 0.367351 -2.146587 -56.362368 -0.017252 7.895253 3.190843 0.220482 -0.161999 0.078526 -0.000000 0.000000 0.000000 0.000000 0.000000 0.000000 0.000000 14.060397 -2.338070 -1.309396 69.664689 18.347369 14.886247 0.711016 72.937560 -0.012302 -3.097864 4.868305 -0.142694 0.053996 -0.358233 -0.000000 0.000000 0.000000 0.000000 0.000000 0.000000 0.000000 
16.592623 16.887797 3.165803 130.784597 -86.480114 -112.685710 -5.872098 -0.758390 -3.500366 -2.093367 -0.436504 -3.502368 -6.871289 -0.471894 0.608182 11.914012 -7.307757 -5.469671 -3.058494 -0.253316 0.525728 0.000000 0.000000 0.000000 -4.118948 11.429343 1.698208 -59.706463 -0.052545 0.635262 -2.161963 -56.090023 -0.017705 7.994382 3.139079 0.219290 -0.162675 0.081762 -0.000000 0.000000 0.000000 0.000000 0.000000 0.000000 0.000000 14.215553 -2.494954 -1.287354 69.871746 17.761366 15.064485 0.758114 71.774278 -0.010954 -2.951133 4.895432 -0.136417 0.052887 -0.347499 -0.000000 0.000000 0.000000 0.000000 0.000000 0.000000 0.000000 
